<svg width="24" height="10" viewBox="0 0 24 10" fill="none" xmlns="http://www.w3.org/2000/svg">
<path d="M21.7627 0.522461H20.1636C19.7138 0.522461 19.364 0.872262 19.364 1.32201V3.84558C19.364 3.99549 19.2641 4.09544 19.1142 4.09544H4.62238C4.47246 4.09544 4.37252 3.99549 4.37252 3.84558V1.32201C4.37252 0.872262 4.02272 0.522461 3.57297 0.522461H1.97388C0.89949 0.522461 0 1.39696 0 2.49634C0 3.57073 0.874504 4.47022 1.97388 4.47022V6.46909C1.97388 7.26864 2.59853 7.91827 3.37309 7.94325V8.7428C3.37309 9.06762 3.64793 9.34246 3.97275 9.34246H5.34697C5.67178 9.34246 5.94663 9.06762 5.94663 8.7428V7.94325H17.8399V8.7428C17.8399 9.06762 18.1147 9.34246 18.4395 9.34246H19.8138C20.1386 9.34246 20.4134 9.06762 20.4134 8.7428V7.91827C21.188 7.8683 21.8126 7.24365 21.8126 6.4441V4.44524C22.887 4.44524 23.7865 3.57073 23.7865 2.47136C23.7365 1.39696 22.862 0.522461 21.7627 0.522461Z" fill="#FE753F"/>
</svg>
